<?xml version="1.0" encoding="UTF-8" standalone="no"?>
<!-- Created with Inkscape (http://www.inkscape.org/) -->

<svg
   xmlns:dc="http://purl.org/dc/elements/1.1/"
   xmlns:cc="http://creativecommons.org/ns#"
   xmlns:rdf="http://www.w3.org/1999/02/22-rdf-syntax-ns#"
   xmlns:svg="http://www.w3.org/2000/svg"
   xmlns="http://www.w3.org/2000/svg"
   xmlns:sodipodi="http://sodipodi.sourceforge.net/DTD/sodipodi-0.dtd"
   xmlns:inkscape="http://www.inkscape.org/namespaces/inkscape"
   width="24"
   height="24"
   viewBox="0 0 6.3499999 6.3500002"
   version="1.1"
   id="svg8"
   inkscape:version="0.92.4 (5da689c313, 2019-01-14)"
   sodipodi:docname="7. Employees.svg">
  <defs
     id="defs2">
    <pattern
       y="0"
       x="0"
       height="6"
       width="6"
       patternUnits="userSpaceOnUse"
       id="EMFhbasepattern" />
    <pattern
       y="0"
       x="0"
       height="6"
       width="6"
       patternUnits="userSpaceOnUse"
       id="EMFhbasepattern-3" />
    <pattern
       y="0"
       x="0"
       height="6"
       width="6"
       patternUnits="userSpaceOnUse"
       id="EMFhbasepattern-2" />
    <pattern
       y="0"
       x="0"
       height="6"
       width="6"
       patternUnits="userSpaceOnUse"
       id="EMFhbasepattern-1" />
    <pattern
       y="0"
       x="0"
       height="6"
       width="6"
       patternUnits="userSpaceOnUse"
       id="EMFhbasepattern-5" />
  </defs>
  <sodipodi:namedview
     id="base"
     pagecolor="#ffffff"
     bordercolor="#666666"
     borderopacity="1.0"
     inkscape:pageopacity="0.0"
     inkscape:pageshadow="2"
     inkscape:zoom="5.656854"
     inkscape:cx="-18.676837"
     inkscape:cy="3.9082145"
     inkscape:document-units="px"
     inkscape:current-layer="layer1"
     showgrid="false"
     units="px"
     inkscape:window-width="1280"
     inkscape:window-height="658"
     inkscape:window-x="-8"
     inkscape:window-y="-8"
     inkscape:window-maximized="1"
     showguides="true"
     guidecolor="#af0000"
     guideopacity="0.49803922"
     guidehicolor="#ff4b4b"
     guidehiopacity="0.49803922"
     inkscape:snap-global="true">
    <inkscape:grid
       type="xygrid"
       id="grid815"
       empspacing="1"
       originx="0"
       originy="0"
       spacingx="0"
       spacingy="0"
       snapvisiblegridlinesonly="true"
       visible="true"
       enabled="true"
       dotted="false" />
  </sodipodi:namedview>
  <metadata
     id="metadata5">
    <rdf:RDF>
      <cc:Work
         rdf:about="">
        <dc:format>image/svg+xml</dc:format>
        <dc:type
           rdf:resource="http://purl.org/dc/dcmitype/StillImage" />
        <dc:title />
      </cc:Work>
    </rdf:RDF>
  </metadata>
  <g
     inkscape:label="Guides"
     inkscape:groupmode="layer"
     id="layer1"
     transform="translate(0,-290.64999)">
    <path
       style="opacity:1;fill:#000000;fill-opacity:1;fill-rule:nonzero;stroke:none;stroke-width:1;stroke-linecap:round;stroke-linejoin:miter;stroke-miterlimit:4;stroke-dasharray:none;stroke-dashoffset:0;stroke-opacity:1;paint-order:normal"
       d="M 12.101562 6.6582031 A 1.7717538 1.7701669 0 0 0 10.330078 8.4296875 A 1.7717538 1.7701669 0 0 0 12.068359 10.197266 C 11.808592 10.201045 11.561993 10.265579 11.322266 10.357422 L 12.095703 11.716797 L 12.902344 10.365234 C 12.658564 10.269612 12.405513 10.203313 12.140625 10.197266 A 1.7717538 1.7701669 0 0 0 13.875 8.4296875 A 1.7717538 1.7701669 0 0 0 12.101562 6.6582031 z M 6.4277344 10.1875 A 1.7717538 1.7701669 0 0 0 4.65625 11.958984 A 1.7717538 1.7701669 0 0 0 6.3945312 13.726562 C 6.1347778 13.731953 5.8881651 13.795104 5.6484375 13.886719 L 6.421875 15.246094 L 7.2285156 13.894531 C 6.9847285 13.798906 6.7316864 13.732932 6.4667969 13.726562 A 1.7717538 1.7701669 0 0 0 8.2011719 11.958984 A 1.7717538 1.7701669 0 0 0 6.4277344 10.1875 z M 17.572266 10.1875 A 1.7717538 1.7701669 0 0 0 15.800781 11.958984 A 1.7717538 1.7701669 0 0 0 17.539062 13.726562 C 17.279296 13.730342 17.032697 13.794876 16.792969 13.886719 L 17.566406 15.246094 L 18.373047 13.894531 C 18.129267 13.798909 17.876216 13.73261 17.611328 13.726562 A 1.7717538 1.7701669 0 0 0 19.345703 11.958984 A 1.7717538 1.7701669 0 0 0 17.572266 10.1875 z M 10.953125 10.517578 C 9.9083956 11.122869 9.1759438 12.486377 9.1757812 13.8125 L 15.029297 13.8125 C 15.029134 12.494994 14.305382 11.1424 13.271484 10.53125 L 12.28125 12.177734 L 12.273438 12.193359 A 0.20002 0.20002 0 0 1 12.265625 12.207031 L 12.265625 12.214844 L 12.255859 12.222656 A 0.20002 0.20002 0 0 1 12.255859 12.230469 A 0.20002 0.20002 0 0 1 12.228516 12.259766 A 0.20002 0.20002 0 0 1 12.220703 12.275391 A 0.20002 0.20002 0 0 1 12.214844 12.275391 A 0.20002 0.20002 0 0 1 12.207031 12.283203 A 0.20002 0.20002 0 0 1 12.183594 12.298828 A 0.20002 0.20002 0 0 1 12.177734 12.298828 A 0.20002 0.20002 0 0 1 12.169922 12.306641 A 0.20002 0.20002 0 0 1 12.154297 12.306641 A 0.20002 0.20002 0 0 1 12.148438 12.314453 A 0.20002 0.20002 0 0 1 12.140625 12.314453 A 0.20002 0.20002 0 0 1 12.132812 12.320312 A 0.20002 0.20002 0 0 1 12.111328 12.320312 A 0.20002 0.20002 0 0 1 12.074219 12.320312 A 0.20002 0.20002 0 0 1 12.037109 12.314453 A 0.20002 0.20002 0 0 1 12.021484 12.306641 A 0.20002 0.20002 0 0 1 12.015625 12.306641 A 0.20002 0.20002 0 0 1 11.984375 12.291016 A 0.20002 0.20002 0 0 1 11.978516 12.283203 A 0.20002 0.20002 0 0 1 11.970703 12.275391 A 0.20002 0.20002 0 0 1 11.941406 12.246094 A 0.20002 0.20002 0 0 1 11.925781 12.230469 A 0.20002 0.20002 0 0 1 11.917969 12.214844 L 11.912109 12.207031 L 11.904297 12.193359 A 0.20002 0.20002 0 0 1 11.904297 12.185547 L 11.894531 12.169922 L 10.953125 10.517578 z M 5.2792969 14.046875 C 4.2345688 14.65217 3.502116 16.015672 3.5019531 17.341797 L 9.3554688 17.341797 C 9.3553069 16.024285 8.6315528 14.671693 7.5976562 14.060547 L 6.6074219 15.707031 L 6.5996094 15.720703 A 0.20002 0.20002 0 0 1 6.5917969 15.736328 L 6.5917969 15.744141 L 6.5839844 15.751953 A 0.20002 0.20002 0 0 1 6.5839844 15.759766 A 0.20002 0.20002 0 0 1 6.5546875 15.789062 A 0.20002 0.20002 0 0 1 6.546875 15.804688 A 0.20002 0.20002 0 0 1 6.5410156 15.804688 A 0.20002 0.20002 0 0 1 6.5332031 15.8125 A 0.20002 0.20002 0 0 1 6.5097656 15.828125 A 0.20002 0.20002 0 0 1 6.5039062 15.828125 A 0.20002 0.20002 0 0 1 6.4960938 15.833984 A 0.20002 0.20002 0 0 1 6.4804688 15.833984 A 0.20002 0.20002 0 0 1 6.4746094 15.841797 A 0.20002 0.20002 0 0 1 6.4667969 15.841797 A 0.20002 0.20002 0 0 1 6.4589844 15.849609 A 0.20002 0.20002 0 0 1 6.4375 15.849609 A 0.20002 0.20002 0 0 1 6.4003906 15.849609 A 0.20002 0.20002 0 0 1 6.3632812 15.841797 A 0.20002 0.20002 0 0 1 6.3476562 15.833984 A 0.20002 0.20002 0 0 1 6.3417969 15.833984 A 0.20002 0.20002 0 0 1 6.3105469 15.820312 A 0.20002 0.20002 0 0 1 6.3046875 15.8125 A 0.20002 0.20002 0 0 1 6.296875 15.804688 A 0.20002 0.20002 0 0 1 6.2675781 15.775391 A 0.20002 0.20002 0 0 1 6.2519531 15.759766 A 0.20002 0.20002 0 0 1 6.2441406 15.744141 L 6.2382812 15.736328 L 6.2304688 15.720703 A 0.20002 0.20002 0 0 1 6.2304688 15.714844 L 6.2226562 15.699219 L 5.2792969 14.046875 z M 16.423828 14.046875 C 15.379099 14.652166 14.646647 16.015674 14.646484 17.341797 L 20.5 17.341797 C 20.499837 16.024291 19.776085 14.671696 18.742188 14.060547 L 17.751953 15.707031 L 17.744141 15.722656 A 0.20002 0.20002 0 0 1 17.736328 15.736328 L 17.736328 15.744141 L 17.728516 15.751953 A 0.20002 0.20002 0 0 1 17.728516 15.759766 A 0.20002 0.20002 0 0 1 17.699219 15.791016 A 0.20002 0.20002 0 0 1 17.691406 15.804688 A 0.20002 0.20002 0 0 1 17.685547 15.804688 A 0.20002 0.20002 0 0 1 17.677734 15.8125 A 0.20002 0.20002 0 0 1 17.654297 15.828125 A 0.20002 0.20002 0 0 1 17.648438 15.828125 A 0.20002 0.20002 0 0 1 17.640625 15.835938 A 0.20002 0.20002 0 0 1 17.625 15.835938 A 0.20002 0.20002 0 0 1 17.619141 15.84375 A 0.20002 0.20002 0 0 1 17.611328 15.84375 A 0.20002 0.20002 0 0 1 17.603516 15.851562 A 0.20002 0.20002 0 0 1 17.582031 15.851562 A 0.20002 0.20002 0 0 1 17.544922 15.851562 A 0.20002 0.20002 0 0 1 17.507812 15.84375 A 0.20002 0.20002 0 0 1 17.492188 15.835938 A 0.20002 0.20002 0 0 1 17.486328 15.835938 A 0.20002 0.20002 0 0 1 17.455078 15.820312 A 0.20002 0.20002 0 0 1 17.449219 15.8125 A 0.20002 0.20002 0 0 1 17.441406 15.804688 A 0.20002 0.20002 0 0 1 17.412109 15.775391 A 0.20002 0.20002 0 0 1 17.396484 15.759766 A 0.20002 0.20002 0 0 1 17.388672 15.744141 L 17.382812 15.736328 L 17.375 15.722656 A 0.20002 0.20002 0 0 1 17.375 15.714844 L 17.367188 15.699219 L 16.423828 14.046875 z "
       transform="matrix(0.26458334,0,0,0.26458334,0,290.64999)"
       id="path950" />
  </g>
</svg>
