<?xml version="1.0" encoding="UTF-8" standalone="no"?> <svg id="Layer_1" data-name="Layer 1" xmlns="http://www.w3.org/2000/svg" viewBox="0 0 128 128"><defs><style>.cls-1{fill:#2d3e50;}</style></defs><title>n</title><path class="cls-1" d="M119.085,95.93654a11.77064,11.77064,0,0,0-6.3366-8.53c-3.62862-1.80889-8.68165-3.89941-13.82675-5.89249-2.44257-.94778-4.9068-1.87388-7.25189-2.735-7.71222-2.8325-14.10839-4.9772-14.10839-4.9772H50.43317s-6.39617,2.1447-14.103,4.9772c-2.34509.86114-4.80931,1.78724-7.25189,2.735-5.1451,1.99308-10.1981,4.0836-13.82675,5.89249a11.75713,11.75713,0,0,0-6.3366,8.53c-1.89014,11.01594-2.2205,29.59785-2.2205,29.59785H121.30553S120.96975,106.95248,119.085,95.93654ZM51.55426,80.56624H76.44571c2.37758.81238,8.53545,2.93544,15.22406,5.43758V96.38607H36.3302V85.9984C43.01881,83.50168,49.17671,81.37863,51.55426,80.56624ZM15.58735,97.07932a5.01554,5.01554,0,0,1,2.68087-3.61784c2.85415-1.419,6.67777-3.04373,10.74511-4.65765l-.24911,29.96071H13.68637A196.93357,196.93357,0,0,1,15.58735,97.07932Zm83.64843,21.68521-.24914-29.96071c4.06192,1.61392,7.891,3.2333,10.73972,4.65765a5.01878,5.01878,0,0,1,2.68626,3.61784,196.93356,196.93356,0,0,1,1.901,21.68521Z"/><path class="cls-1" d="M64,63.32355h0A21.79879,21.79879,0,0,1,42.60149,45.6831L39.26728,28.52548A22.96782,22.96782,0,0,1,62.026,2.4656h3.948A22.96782,22.96782,0,0,1,88.73272,28.52548L85.39851,45.6831A21.79879,21.79879,0,0,1,64,63.32355Z"/></svg>